<?xml version="1.0" encoding="UTF-8"?>
<svg version="1.1" xmlns="http://www.w3.org/2000/svg" width="920" height="501">
<path d="M0 0 C303.6 0 607.2 0 920 0 C920 165.33 920 330.66 920 501 C616.4 501 312.8 501 0 501 C0 335.67 0 170.34 0 0 Z " fill="#F6F6F6" transform="translate(0,0)"/>
<path d="M0 0 C1.25683594 -0.01417969 2.51367188 -0.02835938 3.80859375 -0.04296875 C15.71479334 0.688005 26.16375075 7.39372032 34.125 15.9375 C39.55340924 22.80181103 42.35187251 29.5324169 43.5625 38.1875 C44.2225 38.1875 44.8825 38.1875 45.5625 38.1875 C47.5425 46.1075 47.5425 46.1075 49.5625 54.1875 C50.2225 54.1875 50.8825 54.1875 51.5625 54.1875 C52.16666667 56 52.77083333 57.8125 53.375 59.625 C53.74238281 60.72199219 54.10976563 61.81898437 54.48828125 62.94921875 C55.12355059 64.86426705 55.7497429 66.78243433 56.35546875 68.70703125 C57.49767223 72.31033614 58.73413547 75.65378978 60.5 79 C62.69417468 83.19573097 64.10865475 87.55646951 65.53515625 92.0625 C67.23388832 97.22974584 69.21548882 102.28766452 71.16796875 107.36328125 C71.6953125 108.7421875 72.22265625 110.12109375 72.75 111.5 C73.02263672 112.20189453 73.29527344 112.90378906 73.57617188 113.62695312 C74.71491381 116.62078845 75.5625 118.95591798 75.5625 122.1875 C76.2225 122.1875 76.8825 122.1875 77.5625 122.1875 C77.5625 123.5075 77.5625 124.8275 77.5625 126.1875 C79.19622055 126.18083817 79.19622055 126.18083817 80.86294556 126.17404175 C91.13293269 126.13347796 101.40290355 126.10350706 111.67295265 126.08387566 C116.95273811 126.07344365 122.23245883 126.05929498 127.51220703 126.03662109 C132.60855113 126.01487209 137.70483301 126.00292699 142.80121994 125.99774551 C144.74444941 125.99405347 146.68767551 125.98684384 148.63087845 125.97603989 C151.35506775 125.96149771 154.07900072 125.95952321 156.80322266 125.96044922 C157.60451599 125.95325867 158.40580933 125.94606812 159.23138428 125.93865967 C163.73497359 125.95519761 167.31837628 126.48155925 171.5625 128.1875 C171.5625 128.8475 171.5625 129.5075 171.5625 130.1875 C172.66658203 130.3421875 172.66658203 130.3421875 173.79296875 130.5 C182.42185707 132.64200895 190.4269629 142.05826879 194.9140625 149.3984375 C197.26369041 153.94555915 198.68840802 158.04942678 198.68554783 163.20921707 C198.68753888 164.00442867 198.68952993 164.79964026 198.69158131 165.61894917 C198.68866847 166.48665212 198.68575563 167.35435507 198.68275452 168.24835205 C198.68360894 169.17465258 198.68446337 170.10095312 198.68534368 171.05532336 C198.68699374 174.16613355 198.68148483 177.27689008 198.67602539 180.38769531 C198.67574339 182.61485798 198.6759015 184.84202074 198.6764679 187.06918335 C198.67675537 193.12248055 198.67086666 199.17575803 198.66389394 205.22905064 C198.65765213 211.55250003 198.65705594 217.87594985 198.65586853 224.19940186 C198.65311134 234.81523013 198.64686072 245.43105059 198.63793945 256.046875 C198.62876015 266.98111942 198.62168185 277.91536188 198.61743164 288.84960938 C198.61716892 289.52361948 198.61690619 290.19762959 198.61663551 290.89206424 C198.61533047 294.2733818 198.61406676 297.65469936 198.61282361 301.03601694 C198.60245724 329.08651634 198.58477002 357.13700772 198.5625 385.1875 C197.9025 385.1875 197.2425 385.1875 196.5625 385.1875 C196.45292969 385.83976562 196.34335937 386.49203125 196.23046875 387.1640625 C194.0956482 398.93160993 188.95090352 404.35886334 179.84375 411.734375 C177.37811308 413.30495194 175.43956771 413.80254024 172.5625 414.1875 C172.5625 414.8475 172.5625 415.5075 172.5625 416.1875 C163.25345043 419.07893354 154.42614637 419.6152346 144.76719666 419.56845093 C143.19725217 419.57191383 141.62731013 419.57668261 140.05737311 419.58263266 C135.77305686 419.5950854 131.48894267 419.58899857 127.20462596 419.57967401 C122.57266785 419.5728603 117.94074344 419.58337618 113.30879211 419.59161377 C104.24682605 419.60492828 95.18493469 419.60208364 86.12296575 419.59337585 C78.75634902 419.58659113 71.38975318 419.58568599 64.02313423 419.5889473 C62.97329879 419.589407 61.92346335 419.58986669 60.84181472 419.59034032 C58.70887616 419.59129953 56.57593761 419.59227217 54.44299907 419.5932581 C34.45982605 419.6018052 14.47669437 419.59198831 -5.50647186 419.575857 C-22.64211196 419.56245248 -39.77769108 419.56478434 -56.91333008 419.57861328 C-76.82824613 419.59467772 -96.74312599 419.60098335 -116.65804762 419.59177649 C-118.78268174 419.59082087 -120.90731586 419.58987776 -123.03195 419.5889473 C-124.07722421 419.58848447 -125.12249843 419.58802164 -126.19944762 419.58754479 C-133.55524122 419.58495765 -140.9110118 419.58931992 -148.26680183 419.59638596 C-157.2337851 419.60481066 -166.20068961 419.60250031 -175.16766388 419.58654372 C-179.74018075 419.5786744 -184.31256643 419.57554658 -188.88508224 419.58549118 C-193.07524494 419.59446622 -197.2651555 419.58945921 -201.4552955 419.57355852 C-202.96656011 419.57022261 -204.47784626 419.57187786 -205.98909689 419.57918589 C-217.40981393 419.63015357 -227.76508097 418.69778204 -237.4375 412.1875 C-238.20900391 411.36572266 -238.20900391 411.36572266 -238.99609375 410.52734375 C-240.76435017 408.66579802 -242.14218564 407.35875387 -244.4375 406.1875 C-248.61025254 406.22639383 -252.41458841 407.14066606 -256.4375 408.1875 C-267.16403495 410.62836786 -279.35831032 409.88229631 -289.19921875 404.74609375 C-299.97368098 397.63461868 -305.53005593 388.9271641 -310.4375 377.1875 C-311.1441344 375.70752096 -311.85227488 374.22825925 -312.5625 372.75 C-314.74471815 367.85353531 -316.0162149 362.72064735 -317.43359375 357.5625 C-319.03981055 352.1626116 -321.31582577 347.25138058 -324 342.3125 C-326.44135574 337.00520491 -328.4375 331.06408509 -328.4375 325.1875 C-329.0975 325.1875 -329.7575 325.1875 -330.4375 325.1875 C-331.10934618 323.08498139 -331.77480968 320.98042237 -332.4375 318.875 C-332.80875 317.70324219 -333.18 316.53148437 -333.5625 315.32421875 C-334.4375 312.1875 -334.4375 312.1875 -334.4375 309.1875 C-335.0975 309.1875 -335.7575 309.1875 -336.4375 309.1875 C-336.67984375 308.35347656 -336.9221875 307.51945312 -337.171875 306.66015625 C-338.92236446 300.78255125 -340.77655166 295.16543455 -343.375 289.61328125 C-345.20248301 285.44097628 -346.63435706 281.12590273 -348.13671875 276.828125 C-349.78527683 272.21414262 -351.5903531 267.66902903 -353.421875 263.125 C-354.45236529 260.14450501 -355.01043845 257.30690614 -355.4375 254.1875 C-356.0975 254.1875 -356.7575 254.1875 -357.4375 254.1875 C-358.10934618 252.08498139 -358.77480968 249.98042237 -359.4375 247.875 C-359.994375 246.11736328 -359.994375 246.11736328 -360.5625 244.32421875 C-361.4375 241.1875 -361.4375 241.1875 -361.4375 238.1875 C-362.0975 238.1875 -362.7575 238.1875 -363.4375 238.1875 C-364.4275 233.2375 -364.4275 233.2375 -365.4375 228.1875 C-366.0975 228.1875 -366.7575 228.1875 -367.4375 228.1875 C-367.83582031 226.9809375 -368.23414063 225.774375 -368.64453125 224.53125 C-369.17960565 222.91663954 -369.71476652 221.30205773 -370.25 219.6875 C-370.51103516 218.89601563 -370.77207031 218.10453125 -371.04101562 217.2890625 C-372.32645742 213.41686747 -373.65603959 209.58348785 -375.13671875 205.78125 C-376.4375 202.1875 -376.4375 202.1875 -376.4375 199.1875 C-377.0975 199.1875 -377.7575 199.1875 -378.4375 199.1875 C-379.46009869 195.8606456 -380.45283344 192.52575981 -381.4375 189.1875 C-381.65019531 188.50816406 -381.86289062 187.82882813 -382.08203125 187.12890625 C-385.2895808 176.02940024 -384.01664685 161.89893459 -379.1484375 151.41015625 C-375.02880435 144.96634504 -369.39519698 138.56695282 -362.4375 135.1875 C-361.7775 135.1875 -361.1175 135.1875 -360.4375 135.1875 C-360.4375 134.5275 -360.4375 133.8675 -360.4375 133.1875 C-359.62128174 132.93842896 -359.62128174 132.93842896 -358.78857422 132.68432617 C-356.2948475 131.91998276 -353.8036923 131.14756183 -351.3125 130.375 C-350.4565625 130.11396484 -349.600625 129.85292969 -348.71875 129.58398438 C-344.03911021 128.1260966 -339.80266086 126.44599627 -335.4375 124.1875 C-333.78473811 123.64329791 -332.11772075 123.13986712 -330.4375 122.6875 C-326.49659362 121.56236828 -323.0920325 120.05537217 -319.4375 118.1875 C-318.344375 117.878125 -317.25125 117.56875 -316.125 117.25 C-312.47627177 116.19867153 -309.24019754 114.82144921 -305.796875 113.25 C-299.07396348 110.22246368 -292.14278918 107.67315282 -285.25 105.0625 C-284.58476318 104.80871582 -283.91952637 104.55493164 -283.23413086 104.29345703 C-280.05518148 103.09804249 -276.92426968 102.04131675 -273.65234375 101.109375 C-270.35391495 100.2698455 -270.35391495 100.2698455 -267.1875 98.5625 C-264.4375 97.1875 -264.4375 97.1875 -261.4375 97.1875 C-261.4375 96.5275 -261.4375 95.8675 -261.4375 95.1875 C-260.77218262 94.99115967 -260.10686523 94.79481934 -259.42138672 94.5925293 C-256.38335246 93.69243957 -253.34793859 92.783803 -250.3125 91.875 C-249.26578125 91.56626953 -248.2190625 91.25753906 -247.140625 90.93945312 C-241.95725628 89.3811619 -237.25458563 87.68838312 -232.4375 85.1875 C-231.4475 85.1875 -230.4575 85.1875 -229.4375 85.1875 C-229.4375 84.5275 -229.4375 83.8675 -229.4375 83.1875 C-227.16800898 82.51594651 -224.8971039 81.8501037 -222.625 81.1875 C-221.36042969 80.81625 -220.09585938 80.445 -218.79296875 80.0625 C-215.4375 79.1875 -215.4375 79.1875 -212.4375 79.1875 C-212.4375 78.5275 -212.4375 77.8675 -212.4375 77.1875 C-207.27186745 75.28538858 -202.1116975 73.38614202 -196.875 71.6875 C-193.79709361 70.67781642 -190.80753383 69.54603947 -187.8125 68.3125 C-182.31726298 66.06796657 -176.69717334 64.25212552 -171.05078125 62.43359375 C-168.48504665 61.54876204 -166.07789608 60.62527484 -163.60546875 59.53515625 C-160.4375 58.1875 -160.4375 58.1875 -158.4375 58.1875 C-158.4375 57.5275 -158.4375 56.8675 -158.4375 56.1875 C-157.68726563 55.94515625 -156.93703125 55.7028125 -156.1640625 55.453125 C-149.47622664 53.26315356 -142.95121226 50.84338863 -136.4375 48.1875 C-116.5617236 40.1875 -116.5617236 40.1875 -109.4375 40.1875 C-109.4375 39.5275 -109.4375 38.8675 -109.4375 38.1875 C-108.58027344 37.93355469 -107.72304688 37.67960937 -106.83984375 37.41796875 C-99.43536161 35.23376343 -99.43536161 35.23376343 -92.25 32.4375 C-89.4375 31.1875 -89.4375 31.1875 -87.4375 31.1875 C-87.4375 30.5275 -87.4375 29.8675 -87.4375 29.1875 C-85.9525 28.69830078 -85.9525 28.69830078 -84.4375 28.19921875 C-83.10404927 27.75816726 -81.77072395 27.31673651 -80.4375 26.875 C-79.40834473 26.53432495 -79.40834473 26.53432495 -78.35839844 26.18676758 C-74.76872824 24.99091937 -71.212329 23.75312863 -67.6875 22.375 C-64.4375 21.1875 -64.4375 21.1875 -61.4375 21.1875 C-61.4375 20.5275 -61.4375 19.8675 -61.4375 19.1875 C-59.93509766 18.69830078 -59.93509766 18.69830078 -58.40234375 18.19921875 C-57.0598418 17.75797685 -55.71739693 17.31656129 -54.375 16.875 C-53.71822266 16.66166016 -53.06144531 16.44832031 -52.38476562 16.22851562 C-49.0978649 15.14367647 -45.96094473 13.97977078 -42.78125 12.59375 C-39.79642136 11.33844823 -37.1724865 10.56496335 -34 10 C-33.13503906 9.84144531 -32.27007813 9.68289062 -31.37890625 9.51953125 C-30.73824219 9.40996094 -30.09757812 9.30039062 -29.4375 9.1875 C-29.4375 8.5275 -29.4375 7.8675 -29.4375 7.1875 C-28.70144531 7.00574219 -27.96539063 6.82398438 -27.20703125 6.63671875 C-22.09750081 5.32052531 -17.92447841 4.00788643 -13.4375 1.1875 C-8.94026972 0.22098998 -4.59220287 0.02350155 0 0 Z " fill="#A3D9EC" transform="translate(552.4375,40.8125)"/>
<path d="M0 0 C1.25683594 -0.01417969 2.51367188 -0.02835938 3.80859375 -0.04296875 C15.71479334 0.688005 26.16375075 7.39372032 34.125 15.9375 C39.55340924 22.80181103 42.35187251 29.5324169 43.5625 38.1875 C44.2225 38.1875 44.8825 38.1875 45.5625 38.1875 C47.5425 46.1075 47.5425 46.1075 49.5625 54.1875 C50.2225 54.1875 50.8825 54.1875 51.5625 54.1875 C52.16666667 56 52.77083333 57.8125 53.375 59.625 C53.74238281 60.72199219 54.10976563 61.81898437 54.48828125 62.94921875 C55.12355059 64.86426705 55.7497429 66.78243433 56.35546875 68.70703125 C57.49767223 72.31033614 58.73413547 75.65378978 60.5 79 C62.69417468 83.19573097 64.10865475 87.55646951 65.53515625 92.0625 C67.23388832 97.22974584 69.21548882 102.28766452 71.16796875 107.36328125 C71.6953125 108.7421875 72.22265625 110.12109375 72.75 111.5 C73.02263672 112.20189453 73.29527344 112.90378906 73.57617188 113.62695312 C74.71491381 116.62078845 75.5625 118.95591798 75.5625 122.1875 C76.2225 122.1875 76.8825 122.1875 77.5625 122.1875 C77.5625 123.5075 77.5625 124.8275 77.5625 126.1875 C79.19622055 126.18083817 79.19622055 126.18083817 80.86294556 126.17404175 C91.13293269 126.13347796 101.40290355 126.10350706 111.67295265 126.08387566 C116.95273811 126.07344365 122.23245883 126.05929498 127.51220703 126.03662109 C132.60855113 126.01487209 137.70483301 126.00292699 142.80121994 125.99774551 C144.74444941 125.99405347 146.68767551 125.98684384 148.63087845 125.97603989 C151.35506775 125.96149771 154.07900072 125.95952321 156.80322266 125.96044922 C157.60451599 125.95325867 158.40580933 125.94606812 159.23138428 125.93865967 C163.73497359 125.95519761 167.31837628 126.48155925 171.5625 128.1875 C171.5625 128.8475 171.5625 129.5075 171.5625 130.1875 C172.66658203 130.3421875 172.66658203 130.3421875 173.79296875 130.5 C182.42185707 132.64200895 190.4269629 142.05826879 194.9140625 149.3984375 C197.26369041 153.94555915 198.68840802 158.04942678 198.68554783 163.20921707 C198.68753888 164.00442867 198.68952993 164.79964026 198.69158131 165.61894917 C198.68866847 166.48665212 198.68575563 167.35435507 198.68275452 168.24835205 C198.68360894 169.17465258 198.68446337 170.10095312 198.68534368 171.05532336 C198.68699374 174.16613355 198.68148483 177.27689008 198.67602539 180.38769531 C198.67574339 182.61485798 198.6759015 184.84202074 198.6764679 187.06918335 C198.67675537 193.12248055 198.67086666 199.17575803 198.66389394 205.22905064 C198.65765213 211.55250003 198.65705594 217.87594985 198.65586853 224.19940186 C198.65311134 234.81523013 198.64686072 245.43105059 198.63793945 256.046875 C198.62876015 266.98111942 198.62168185 277.91536188 198.61743164 288.84960938 C198.61716892 289.52361948 198.61690619 290.19762959 198.61663551 290.89206424 C198.61533047 294.2733818 198.61406676 297.65469936 198.61282361 301.03601694 C198.60245724 329.08651634 198.58477002 357.13700772 198.5625 385.1875 C197.9025 385.1875 197.2425 385.1875 196.5625 385.1875 C196.45292969 385.83976562 196.34335937 386.49203125 196.23046875 387.1640625 C194.0956482 398.93160993 188.95090352 404.35886334 179.84375 411.734375 C177.37811308 413.30495194 175.43956771 413.80254024 172.5625 414.1875 C172.5625 414.8475 172.5625 415.5075 172.5625 416.1875 C163.25345043 419.07893354 154.42614637 419.6152346 144.76719666 419.56845093 C143.19725217 419.57191383 141.62731013 419.57668261 140.05737311 419.58263266 C135.77305686 419.5950854 131.48894267 419.58899857 127.20462596 419.57967401 C122.57266785 419.5728603 117.94074344 419.58337618 113.30879211 419.59161377 C104.24682605 419.60492828 95.18493469 419.60208364 86.12296575 419.59337585 C78.75634902 419.58659113 71.38975318 419.58568599 64.02313423 419.5889473 C62.97329879 419.589407 61.92346335 419.58986669 60.84181472 419.59034032 C58.70887616 419.59129953 56.57593761 419.59227217 54.44299907 419.5932581 C34.45982605 419.6018052 14.47669437 419.59198831 -5.50647186 419.575857 C-22.64211196 419.56245248 -39.77769108 419.56478434 -56.91333008 419.57861328 C-76.82824613 419.59467772 -96.74312599 419.60098335 -116.65804762 419.59177649 C-118.78268174 419.59082087 -120.90731586 419.58987776 -123.03195 419.5889473 C-124.07722421 419.58848447 -125.12249843 419.58802164 -126.19944762 419.58754479 C-133.55524122 419.58495765 -140.9110118 419.58931992 -148.26680183 419.59638596 C-157.2337851 419.60481066 -166.20068961 419.60250031 -175.16766388 419.58654372 C-179.74018075 419.5786744 -184.31256643 419.57554658 -188.88508224 419.58549118 C-193.07524494 419.59446622 -197.2651555 419.58945921 -201.4552955 419.57355852 C-202.96656011 419.57022261 -204.47784626 419.57187786 -205.98909689 419.57918589 C-217.40981393 419.63015357 -227.76508097 418.69778204 -237.4375 412.1875 C-238.20900391 411.36572266 -238.20900391 411.36572266 -238.99609375 410.52734375 C-240.76435017 408.66579802 -242.14218564 407.35875387 -244.4375 406.1875 C-248.61025254 406.22639383 -252.41458841 407.14066606 -256.4375 408.1875 C-267.16403495 410.62836786 -279.35831032 409.88229631 -289.19921875 404.74609375 C-299.97368098 397.63461868 -305.53005593 388.9271641 -310.4375 377.1875 C-311.1441344 375.70752096 -311.85227488 374.22825925 -312.5625 372.75 C-314.74471815 367.85353531 -316.0162149 362.72064735 -317.43359375 357.5625 C-319.03981055 352.1626116 -321.31582577 347.25138058 -324 342.3125 C-326.44135574 337.00520491 -328.4375 331.06408509 -328.4375 325.1875 C-329.0975 325.1875 -329.7575 325.1875 -330.4375 325.1875 C-331.10934618 323.08498139 -331.77480968 320.98042237 -332.4375 318.875 C-332.80875 317.70324219 -333.18 316.53148437 -333.5625 315.32421875 C-334.4375 312.1875 -334.4375 312.1875 -334.4375 309.1875 C-335.0975 309.1875 -335.7575 309.1875 -336.4375 309.1875 C-336.67984375 308.35347656 -336.9221875 307.51945312 -337.171875 306.66015625 C-338.92236446 300.78255125 -340.77655166 295.16543455 -343.375 289.61328125 C-345.20248301 285.44097628 -346.63435706 281.12590273 -348.13671875 276.828125 C-349.78527683 272.21414262 -351.5903531 267.66902903 -353.421875 263.125 C-354.45236529 260.14450501 -355.01043845 257.30690614 -355.4375 254.1875 C-356.0975 254.1875 -356.7575 254.1875 -357.4375 254.1875 C-358.10934618 252.08498139 -358.77480968 249.98042237 -359.4375 247.875 C-359.994375 246.11736328 -359.994375 246.11736328 -360.5625 244.32421875 C-361.4375 241.1875 -361.4375 241.1875 -361.4375 238.1875 C-362.0975 238.1875 -362.7575 238.1875 -363.4375 238.1875 C-364.4275 233.2375 -364.4275 233.2375 -365.4375 228.1875 C-366.0975 228.1875 -366.7575 228.1875 -367.4375 228.1875 C-367.83582031 226.9809375 -368.23414063 225.774375 -368.64453125 224.53125 C-369.17960565 222.91663954 -369.71476652 221.30205773 -370.25 219.6875 C-370.51103516 218.89601563 -370.77207031 218.10453125 -371.04101562 217.2890625 C-372.32645742 213.41686747 -373.65603959 209.58348785 -375.13671875 205.78125 C-376.4375 202.1875 -376.4375 202.1875 -376.4375 199.1875 C-377.0975 199.1875 -377.7575 199.1875 -378.4375 199.1875 C-379.46009869 195.8606456 -380.45283344 192.52575981 -381.4375 189.1875 C-381.65019531 188.50816406 -381.86289062 187.82882813 -382.08203125 187.12890625 C-385.2895808 176.02940024 -384.01664685 161.89893459 -379.1484375 151.41015625 C-375.02880435 144.96634504 -369.39519698 138.56695282 -362.4375 135.1875 C-361.7775 135.1875 -361.1175 135.1875 -360.4375 135.1875 C-360.4375 134.5275 -360.4375 133.8675 -360.4375 133.1875 C-359.62128174 132.93842896 -359.62128174 132.93842896 -358.78857422 132.68432617 C-356.2948475 131.91998276 -353.8036923 131.14756183 -351.3125 130.375 C-350.4565625 130.11396484 -349.600625 129.85292969 -348.71875 129.58398438 C-344.03911021 128.1260966 -339.80266086 126.44599627 -335.4375 124.1875 C-333.78473811 123.64329791 -332.11772075 123.13986712 -330.4375 122.6875 C-326.49659362 121.56236828 -323.0920325 120.05537217 -319.4375 118.1875 C-318.344375 117.878125 -317.25125 117.56875 -316.125 117.25 C-312.47627177 116.19867153 -309.24019754 114.82144921 -305.796875 113.25 C-299.07396348 110.22246368 -292.14278918 107.67315282 -285.25 105.0625 C-284.58476318 104.80871582 -283.91952637 104.55493164 -283.23413086 104.29345703 C-280.05518148 103.09804249 -276.92426968 102.04131675 -273.65234375 101.109375 C-270.35391495 100.2698455 -270.35391495 100.2698455 -267.1875 98.5625 C-264.4375 97.1875 -264.4375 97.1875 -261.4375 97.1875 C-261.4375 96.5275 -261.4375 95.8675 -261.4375 95.1875 C-260.77218262 94.99115967 -260.10686523 94.79481934 -259.42138672 94.5925293 C-256.38335246 93.69243957 -253.34793859 92.783803 -250.3125 91.875 C-249.26578125 91.56626953 -248.2190625 91.25753906 -247.140625 90.93945312 C-241.95725628 89.3811619 -237.25458563 87.68838312 -232.4375 85.1875 C-231.4475 85.1875 -230.4575 85.1875 -229.4375 85.1875 C-229.4375 84.5275 -229.4375 83.8675 -229.4375 83.1875 C-227.16800898 82.51594651 -224.8971039 81.8501037 -222.625 81.1875 C-221.36042969 80.81625 -220.09585938 80.445 -218.79296875 80.0625 C-215.4375 79.1875 -215.4375 79.1875 -212.4375 79.1875 C-212.4375 78.5275 -212.4375 77.8675 -212.4375 77.1875 C-207.27186745 75.28538858 -202.1116975 73.38614202 -196.875 71.6875 C-193.79709361 70.67781642 -190.80753383 69.54603947 -187.8125 68.3125 C-182.31726298 66.06796657 -176.69717334 64.25212552 -171.05078125 62.43359375 C-168.48504665 61.54876204 -166.07789608 60.62527484 -163.60546875 59.53515625 C-160.4375 58.1875 -160.4375 58.1875 -158.4375 58.1875 C-158.4375 57.5275 -158.4375 56.8675 -158.4375 56.1875 C-157.68726563 55.94515625 -156.93703125 55.7028125 -156.1640625 55.453125 C-149.47622664 53.26315356 -142.95121226 50.84338863 -136.4375 48.1875 C-116.5617236 40.1875 -116.5617236 40.1875 -109.4375 40.1875 C-109.4375 39.5275 -109.4375 38.8675 -109.4375 38.1875 C-108.58027344 37.93355469 -107.72304688 37.67960937 -106.83984375 37.41796875 C-99.43536161 35.23376343 -99.43536161 35.23376343 -92.25 32.4375 C-89.4375 31.1875 -89.4375 31.1875 -87.4375 31.1875 C-87.4375 30.5275 -87.4375 29.8675 -87.4375 29.1875 C-85.9525 28.69830078 -85.9525 28.69830078 -84.4375 28.19921875 C-83.10404927 27.75816726 -81.77072395 27.31673651 -80.4375 26.875 C-79.40834473 26.53432495 -79.40834473 26.53432495 -78.35839844 26.18676758 C-74.76872824 24.99091937 -71.212329 23.75312863 -67.6875 22.375 C-64.4375 21.1875 -64.4375 21.1875 -61.4375 21.1875 C-61.4375 20.5275 -61.4375 19.8675 -61.4375 19.1875 C-59.93509766 18.69830078 -59.93509766 18.69830078 -58.40234375 18.19921875 C-57.0598418 17.75797685 -55.71739693 17.31656129 -54.375 16.875 C-53.71822266 16.66166016 -53.06144531 16.44832031 -52.38476562 16.22851562 C-49.0978649 15.14367647 -45.96094473 13.97977078 -42.78125 12.59375 C-39.79642136 11.33844823 -37.1724865 10.56496335 -34 10 C-33.13503906 9.84144531 -32.27007813 9.68289062 -31.37890625 9.51953125 C-30.73824219 9.40996094 -30.09757812 9.30039062 -29.4375 9.1875 C-29.4375 8.5275 -29.4375 7.8675 -29.4375 7.1875 C-28.70144531 7.00574219 -27.96539063 6.82398438 -27.20703125 6.63671875 C-22.09750081 5.32052531 -17.92447841 4.00788643 -13.4375 1.1875 C-8.94026972 0.22098998 -4.59220287 0.02350155 0 0 Z M-230.4375 153.1875 C-235.40546458 159.67345376 -235.58630314 165.01890336 -235.57794189 172.97982788 C-235.58091302 173.86529191 -235.58388414 174.75075593 -235.5869453 175.6630522 C-235.5956168 178.63003267 -235.59713922 181.59697271 -235.59863281 184.56396484 C-235.603262 186.69124945 -235.6082868 188.81853323 -235.61367798 190.94581604 C-235.62679238 196.72473097 -235.63324482 202.50363429 -235.63768864 208.28256178 C-235.6406203 211.89264679 -235.64472524 215.50272863 -235.64919281 219.11281204 C-235.66286386 230.40715691 -235.67253301 241.70149453 -235.6763947 252.99584711 C-235.68087767 266.03552955 -235.69843835 279.07510729 -235.7273953 292.1147579 C-235.74900152 302.19386777 -235.75909838 312.27294815 -235.76043582 322.35208094 C-235.7614844 328.37232846 -235.76740392 334.3924775 -235.78525543 340.41270065 C-235.80171819 346.07455285 -235.80390028 351.73623232 -235.79511642 357.3980999 C-235.79434515 359.47536748 -235.79870064 361.55264428 -235.80857468 363.62988853 C-235.82127022 366.46720004 -235.8154303 369.30389758 -235.80499268 372.14120483 C-235.81304908 372.96174013 -235.82110548 373.78227542 -235.82940602 374.62767541 C-235.76655513 381.94058941 -233.72874209 387.89625791 -228.4375 393.1875 C-220.43288239 399.68145481 -212.74331281 400.04456537 -202.86924744 399.94940186 C-201.29959377 399.95632389 -199.72994984 399.965859 -198.16032606 399.97776532 C-193.86742975 400.00272411 -189.57533764 399.99047399 -185.28243911 399.97184801 C-180.6449899 399.95824207 -176.00767653 399.97924165 -171.37025452 399.99572754 C-162.29390846 400.02237966 -153.21786043 400.01665719 -144.14150279 399.99925169 C-136.76431424 399.98569128 -129.38720911 399.98386804 -122.01001167 399.99039459 C-120.43398587 399.99177369 -120.43398587 399.99177369 -118.82612117 399.99318065 C-116.69156807 399.99509903 -114.55701499 399.99704431 -112.42246193 399.9990162 C-92.41641948 400.01611714 -72.4105421 399.99646612 -52.40452672 399.964214 C-35.24315328 399.93740426 -18.08202335 399.94206778 -0.9206543 399.96972656 C19.01623255 400.00184364 38.95297483 400.01447338 58.88988394 399.99605298 C61.01619841 399.99414171 63.14251292 399.99225549 65.26882744 399.99039459 C66.31497305 399.98946894 67.36111867 399.98854329 68.43896567 399.98758958 C75.80672293 399.98241172 83.17438838 399.9911475 90.54213142 400.00527191 C99.52175124 400.0221083 108.50105642 400.01752852 117.48064024 399.98558745 C122.06112853 399.96983062 126.64109242 399.96362297 131.22157669 399.98348236 C135.41692415 400.00139673 139.61126248 399.9914803 143.80651873 399.95961705 C145.3218376 399.95292971 146.8372422 399.95629151 148.35250569 399.97087178 C157.27254806 400.05010105 163.69682126 399.34626251 170.5625 393.1875 C171.34625 392.506875 172.13 391.82625 172.9375 391.125 C178.2088211 384.8399633 178.71137478 379.57319618 178.70294189 371.5980835 C178.70591302 370.72234657 178.70888414 369.84660964 178.7119453 368.94433522 C178.72063021 366.00422166 178.72214037 363.06414882 178.72363281 360.12402344 C178.72826113 358.01821302 178.73328581 355.91240345 178.73867798 353.80659485 C178.75180269 348.08127086 178.75824709 342.3559586 178.76268864 336.63062191 C178.76561927 333.05386891 178.76972406 329.47711912 178.77419281 325.90036774 C178.78786798 314.71013489 178.79753452 303.51990938 178.8013947 292.32966876 C178.80587553 279.41110693 178.82342454 266.4926509 178.8523953 253.57412124 C178.87400995 243.58928261 178.88409887 233.60447375 178.88543582 223.61961198 C178.88648401 217.65576757 178.89239482 211.69202261 178.91025543 205.72820282 C178.92673226 200.11724841 178.92889341 194.50646826 178.92011642 188.89549828 C178.91934585 186.83800223 178.9236915 184.78049682 178.93357468 182.72302437 C178.94629251 179.91009283 178.94041813 177.09777861 178.92999268 174.28485107 C178.93804908 173.4743284 178.94610548 172.66380573 178.95440602 171.82872176 C178.88272286 163.53556052 176.39002806 157.16071626 170.5625 151.1875 C169.5725 150.8575 168.5825 150.5275 167.5625 150.1875 C166.5625 149.1875 165.5625 148.1875 164.5625 147.1875 C161.24118551 146.08039517 158.77783618 146.05986734 155.27830887 146.05607224 C154.31388933 146.05299328 154.31388933 146.05299328 153.32998657 146.04985213 C151.16082897 146.04416696 148.99173457 146.04564124 146.8225708 146.04705811 C145.2575456 146.04447534 143.69252106 146.04146242 142.12749743 146.0380547 C137.81518843 146.02997105 133.50289605 146.02819437 129.19058037 146.02745724 C124.54423448 146.02560905 119.89789728 146.0180629 115.2515564 146.01132202 C105.08630016 145.99772841 94.92104785 145.99171236 84.75578403 145.98731136 C78.41094695 145.98455064 72.06611139 145.9803136 65.72127533 145.97580719 C48.1612673 145.96361311 30.6012605 145.95331412 13.04124832 145.9499321 C11.91692234 145.94971253 10.79259636 145.94949297 9.6341999 145.94926675 C8.50715218 145.94904847 7.38010446 145.94883019 6.21890378 145.9486053 C3.93499835 145.94816183 1.65109293 145.94771527 -0.6328125 145.94726562 C-2.3321639 145.94693348 -2.3321639 145.94693348 -4.06584564 145.94659463 C-22.42587943 145.94264601 -40.78587354 145.92519067 -59.14589199 145.9019061 C-77.98671911 145.87820424 -96.82752631 145.86573078 -115.66836858 145.86456418 C-126.25047926 145.86364676 -136.83253825 145.85787751 -147.4146347 145.83974457 C-156.42512568 145.8243593 -165.435549 145.8192138 -174.44605061 145.82748267 C-179.0443447 145.83139478 -183.64250248 145.83043229 -188.24077988 145.81642532 C-192.45020167 145.80372 -196.65938425 145.80485419 -200.86880556 145.81701604 C-202.39171284 145.81897889 -203.91463687 145.8158675 -205.43752059 145.80717167 C-207.50861845 145.79609415 -209.57886979 145.80355633 -211.64994431 145.8155632 C-213.37504262 145.81466757 -213.37504262 145.81466757 -215.13499141 145.81375384 C-221.14617698 146.49404201 -226.02826738 149.01660428 -230.4375 153.1875 Z " fill="#040406" transform="translate(552.4375,40.8125)"/>
<path d="M0 0 C0.886875 0.598125 1.77375 1.19625 2.6875 1.8125 C3.24824219 2.10640625 3.80898438 2.4003125 4.38671875 2.703125 C12.46802683 7.40115226 15.43639354 17.27004155 18.03515625 25.7890625 C18.67373264 27.76979647 19.44914038 29.60804447 20.3125 31.5 C21.62495878 34.6618325 22.27472799 37.42776954 22.6875 40.8125 C21.8521875 41.06773438 21.8521875 41.06773438 21 41.328125 C17.07157239 42.5756662 13.42318836 43.8748884 9.8125 45.875 C5.0409 48.39602753 -0.01649804 49.07261737 -5.3125 49.8125 C-5.3125 50.4725 -5.3125 51.1325 -5.3125 51.8125 C-6.81490234 52.30169922 -6.81490234 52.30169922 -8.34765625 52.80078125 C-9.6901582 53.24202315 -11.03260307 53.68343871 -12.375 54.125 C-13.03177734 54.33833984 -13.68855469 54.55167969 -14.36523438 54.77148438 C-17.66944101 55.86203533 -20.88061309 57.02629899 -24.0625 58.4375 C-27.5173326 59.89915995 -30.59454273 60.4331166 -34.3125 60.8125 C-34.3125 61.4725 -34.3125 62.1325 -34.3125 62.8125 C-35.06273437 63.05484375 -35.81296875 63.2971875 -36.5859375 63.546875 C-43.27183362 65.73621126 -49.81123433 68.12810643 -56.3125 70.8125 C-62.71563025 73.45637314 -69.13719703 75.7976065 -75.74609375 77.8828125 C-78.4989677 78.76481904 -78.4989677 78.76481904 -81.3125 80.8125 C-83.19404883 81.25361565 -85.09312638 81.6234267 -87 81.9375 C-87.99386719 82.10507813 -88.98773438 82.27265625 -90.01171875 82.4453125 C-90.77097656 82.56648438 -91.53023438 82.68765625 -92.3125 82.8125 C-92.3125 83.4725 -92.3125 84.1325 -92.3125 84.8125 C-93.39789063 85.13863281 -94.48328125 85.46476562 -95.6015625 85.80078125 C-97.04696001 86.24190906 -98.49226778 86.68333096 -99.9375 87.125 C-100.65035156 87.33833984 -101.36320312 87.55167969 -102.09765625 87.77148438 C-106.41580512 89.09862187 -110.28973966 90.72537748 -114.3125 92.8125 C-116.02967028 93.48958513 -117.7591496 94.13635682 -119.5 94.75 C-120.44230469 95.08644531 -121.38460937 95.42289062 -122.35546875 95.76953125 C-124.35788307 96.47579891 -126.36049317 97.18151168 -128.36328125 97.88671875 C-129.82314453 98.40685547 -129.82314453 98.40685547 -131.3125 98.9375 C-132.199375 99.24945313 -133.08625 99.56140625 -134 99.8828125 C-136.52442309 100.80623104 -136.52442309 100.80623104 -139.3125 102.8125 C-144.97653911 104.53754107 -149.99995519 105.08938726 -155.89306641 105.02026367 C-156.71055359 105.01906525 -157.52804077 105.01786682 -158.37030029 105.01663208 C-160.13263728 105.01350007 -161.89497091 105.00623031 -163.65727615 104.9951992 C-166.459522 104.98022584 -169.26129499 104.98198259 -172.06356812 104.98884583 C-180.02674308 105.00757836 -187.9895502 105.01432468 -195.95263672 104.96704102 C-200.83813246 104.93924203 -205.72259419 104.94594871 -210.60807419 104.97405434 C-212.45538185 104.97827723 -214.30276693 104.97002717 -216.14995193 104.9483242 C-231.82815946 104.77174909 -243.4710098 107.84059603 -255.12109375 119.18359375 C-263.09167184 128.7454459 -265.48454319 138.74798652 -266.3125 150.8125 C-268.41501861 151.48434618 -270.51957763 152.14980968 -272.625 152.8125 C-274.38263672 153.369375 -274.38263672 153.369375 -276.17578125 153.9375 C-279.3125 154.8125 -279.3125 154.8125 -282.3125 154.8125 C-282.3125 155.4725 -282.3125 156.1325 -282.3125 156.8125 C-284.41501861 157.48434618 -286.51957763 158.14980968 -288.625 158.8125 C-290.38263672 159.369375 -290.38263672 159.369375 -292.17578125 159.9375 C-295.3125 160.8125 -295.3125 160.8125 -298.3125 160.8125 C-298.3125 161.4725 -298.3125 162.1325 -298.3125 162.8125 C-299.16972656 163.06644531 -300.02695312 163.32039062 -300.91015625 163.58203125 C-308.22359051 165.72875407 -308.22359051 165.72875407 -315.3125 168.5 C-318.02502742 169.68673075 -320.39756565 170.37084328 -323.3125 170.8125 C-323.3125 171.4725 -323.3125 172.1325 -323.3125 172.8125 C-325.08199612 173.31721197 -326.85315223 173.81610685 -328.625 174.3125 C-329.61113281 174.5909375 -330.59726562 174.869375 -331.61328125 175.15625 C-334.3125 175.8125 -334.3125 175.8125 -337.3125 175.8125 C-337.3125 176.4725 -337.3125 177.1325 -337.3125 177.8125 C-339.41501861 178.48434618 -341.51957763 179.14980968 -343.625 179.8125 C-344.79675781 180.18375 -345.96851563 180.555 -347.17578125 180.9375 C-350.3125 181.8125 -350.3125 181.8125 -353.3125 181.8125 C-353.3125 182.4725 -353.3125 183.1325 -353.3125 183.8125 C-358.2625 184.8025 -358.2625 184.8025 -363.3125 185.8125 C-366.2628226 179.67862773 -368.83891634 173.70342874 -370.5390625 167.1015625 C-371.2372427 164.70449231 -371.2372427 164.70449231 -372.875 162.48828125 C-374.76040599 158.97876194 -374.71145898 156.34021118 -374.6875 152.375 C-374.69523438 151.09753906 -374.70296875 149.82007813 -374.7109375 148.50390625 C-374.04068327 142.29419793 -370.97552904 136.96938039 -366.3125 132.8125 C-359.97877921 128.57596796 -353.27845039 125.92890218 -346.03125 123.6875 C-343.76788702 122.95906134 -341.70612575 122.13835035 -339.5625 121.125 C-335.7081732 119.56844495 -332.4404897 119.17460436 -328.3125 118.8125 C-328.3125 118.1525 -328.3125 117.4925 -328.3125 116.8125 C-326.39844633 116.13836789 -324.48113974 115.4734668 -322.5625 114.8125 C-321.49515625 114.44125 -320.4278125 114.07 -319.328125 113.6875 C-316.3125 112.8125 -316.3125 112.8125 -312.3125 112.8125 C-312.3125 112.1525 -312.3125 111.4925 -312.3125 110.8125 C-311.59964844 110.55855469 -310.88679688 110.30460937 -310.15234375 110.04296875 C-303.78311136 107.76845627 -303.78311136 107.76845627 -297.5625 105.125 C-294.11482545 103.73266989 -290.99988497 103.18876377 -287.3125 102.8125 C-287.3125 102.1525 -287.3125 101.4925 -287.3125 100.8125 C-285.20998139 100.14065382 -283.10542237 99.47519032 -281 98.8125 C-279.24236328 98.255625 -279.24236328 98.255625 -277.44921875 97.6875 C-274.3125 96.8125 -274.3125 96.8125 -271.3125 96.8125 C-271.3125 96.1525 -271.3125 95.4925 -271.3125 94.8125 C-269.7313708 94.30557308 -268.14748617 93.80723557 -266.5625 93.3125 C-265.68078125 93.0340625 -264.7990625 92.755625 -263.890625 92.46875 C-261.3125 91.8125 -261.3125 91.8125 -257.3125 91.8125 C-257.3125 91.1525 -257.3125 90.4925 -257.3125 89.8125 C-233.57463592 80.8125 -233.57463592 80.8125 -228.3125 80.8125 C-227.9825 79.8225 -227.6525 78.8325 -227.3125 77.8125 C-224.2578125 76.64453125 -224.2578125 76.64453125 -220.4375 75.625 C-219.18195313 75.28082031 -217.92640625 74.93664062 -216.6328125 74.58203125 C-213.3125 73.8125 -213.3125 73.8125 -210.3125 73.8125 C-210.3125 73.1525 -210.3125 72.4925 -210.3125 71.8125 C-203.11439858 69.18298948 -195.90191614 66.5991036 -188.671875 64.05859375 C-185.16224083 62.75676433 -181.74913084 61.29555865 -178.3125 59.8125 C-169.81914407 56.36008575 -161.44533707 53.08582825 -152.3125 51.8125 C-152.3125 51.1525 -152.3125 50.4925 -152.3125 49.8125 C-151.44367188 49.55855469 -150.57484375 49.30460937 -149.6796875 49.04296875 C-148.52726563 48.69878906 -147.37484375 48.35460937 -146.1875 48 C-144.48207031 47.49533203 -144.48207031 47.49533203 -142.7421875 46.98046875 C-139.40808263 45.84505035 -136.4496192 44.40021433 -133.3125 42.8125 C-131.68091577 42.267798 -130.03468288 41.76440717 -128.375 41.3125 C-124.18732617 40.10885722 -120.28810077 38.61277205 -116.3125 36.8125 C-92.39034679 26.42057453 -92.39034679 26.42057453 -81.3125 24.8125 C-81.3125 24.1525 -81.3125 23.4925 -81.3125 22.8125 C-80.44367188 22.55855469 -79.57484375 22.30460937 -78.6796875 22.04296875 C-77.52726562 21.69878906 -76.37484375 21.35460937 -75.1875 21 C-74.05054688 20.66355469 -72.91359375 20.32710937 -71.7421875 19.98046875 C-68.40808263 18.84505035 -65.4496192 17.40021433 -62.3125 15.8125 C-60.68091577 15.267798 -59.03468288 14.76440717 -57.375 14.3125 C-53.91777892 13.31739482 -50.66292405 12.18501634 -47.375 10.70703125 C-44.44569445 9.43655593 -41.47535999 8.28317193 -38.5 7.125 C-37.37980469 6.68800781 -36.25960938 6.25101562 -35.10546875 5.80078125 C-32.3125 4.8125 -32.3125 4.8125 -30.3125 4.8125 C-30.3125 4.1525 -30.3125 3.4925 -30.3125 2.8125 C-9.72677463 -3.48695694 -9.72677463 -3.48695694 0 0 Z " fill="#0000FB" transform="translate(562.3125,62.1875)"/>
<path d="M0 0 C0 0.66 0 1.32 0 2 C1.3303125 2.12375 1.3303125 2.12375 2.6875 2.25 C6.41255464 3.0934086 8.20928838 4.45552764 11 7 C16.65945211 5.05620113 16.65945211 5.05620113 21.28515625 1.5078125 C26.78544742 -3.32843441 38.5200498 -2.47922248 45.45703125 -2.39453125 C51.41151514 -1.73146303 56.6131958 0.46774161 62 3 C63.07894531 3.48339844 63.07894531 3.48339844 64.1796875 3.9765625 C66.16631134 5.09350552 67.43772017 6.35046518 69 8 C70.16223168 8.94299252 71.32904673 9.88035956 72.5 10.8125 C75.71096947 13.51647429 77.29270748 16.13612745 79 20 C79.66 20.33 80.32 20.66 81 21 C84.47058302 28.37182232 85.39165222 35.71399124 85.4375 43.75 C85.4473291 44.52907715 85.4571582 45.3081543 85.46728516 46.11083984 C85.38369382 51.84472062 84.07743888 56.67225961 82 62 C81.34 62 80.68 62 80 62 C79.91234375 62.72058594 79.8246875 63.44117188 79.734375 64.18359375 C78.85481884 67.55678519 77.45718264 69.37820081 75.25 72.0625 C74.23679687 73.31740234 74.23679687 73.31740234 73.203125 74.59765625 C70.95842362 77.04533595 68.69819225 79.06569993 66 81 C65.34 81 64.68 81 64 81 C63.505 82.485 63.505 82.485 63 84 C52.88409067 89.85040018 38.10381621 89.71689838 26.9296875 87.19921875 C18.37008539 84.71942351 18.37008539 84.71942351 15 81 C12.52514156 79.96215614 11.4750284 79.8272624 8.9375 80.75 C6.97774638 81.87910834 6.97774638 81.87910834 5.765625 83.47265625 C-0.67044743 89.04014369 -13.88742775 88.63913334 -22.13671875 88.36328125 C-27.73493598 87.83685637 -32.94899372 86.50266857 -38 84 C-38.495 83.01 -38.495 83.01 -39 82 C-39.99 81.525625 -40.98 81.05125 -42 80.5625 C-49.65799771 76.34665384 -56.20751957 67.25401675 -59 59 C-62.05624126 47.14602379 -62.04895883 34.34451891 -57.8125 22.75 C-50.38778166 11.48491011 -50.38778166 11.48491011 -45 8 C-44.34 8 -43.68 8 -43 8 C-42.67 7.01 -42.34 6.02 -42 5 C-39.234375 3.68359375 -39.234375 3.68359375 -35.75 2.4375 C-34.61046875 2.02371094 -33.4709375 1.60992187 -32.296875 1.18359375 C-31.20890625 0.79300781 -30.1209375 0.40242187 -29 0 C-28.17371094 -0.37511719 -27.34742188 -0.75023437 -26.49609375 -1.13671875 C-18.30954931 -3.96805884 -8.20823208 -2.11825344 0 0 Z " fill="#050403" transform="translate(610,232)"/>
<path d="M0 0 C0 31.02 0 62.04 0 94 C-3.3 95.32 -6.6 96.64 -10 98 C-12.82528576 100.04881131 -12.82528576 100.04881131 -14 103 C-14.27747388 106.82464001 -13.87193073 109.87375614 -11.5 112.9375 C-8.06097483 114.54032523 -8.06097483 114.54032523 0 115 C0.33 126.55 0.66 138.1 1 150 C-6.2218915 152.40729717 -13.21374421 153.52677299 -20.6328125 151.16015625 C-30.68615416 146.0994063 -34.09432466 136.97080257 -38 127 C-38.63699896 125.60011296 -39.28223357 124.20392995 -39.9375 122.8125 C-42.51904335 117.08273305 -44.48245105 111.11752782 -46.53515625 105.18359375 C-47.95324352 101.09464806 -49.46871926 97.04787027 -51 93 C-51.45375 91.7625 -51.9075 90.525 -52.375 89.25 C-53.60458994 85.96259893 -54.94525754 82.73245821 -56.3125 79.5 C-58.35533048 74.60714159 -60.33985333 69.69594641 -62.25 64.75 C-62.50821533 64.10095703 -62.76643066 63.45191406 -63.0324707 62.78320312 C-64.78734678 58.17833351 -65.54186072 53.90863517 -66 49 C-66.66 49 -67.32 49 -68 49 C-68.67184618 46.89748139 -69.33730968 44.79292237 -70 42.6875 C-70.37125 41.51574219 -70.7425 40.34398437 -71.125 39.13671875 C-72 36 -72 36 -72 33 C-72.66 33 -73.32 33 -74 33 C-74.33 31.02 -74.66 29.04 -75 27 C-48.01030928 16 -48.01030928 16 -43 16 C-43 15.34 -43 14.68 -43 14 C-41.99839844 13.67386719 -40.99679688 13.34773438 -39.96484375 13.01171875 C-38.6223418 12.57047685 -37.27989693 12.12906129 -35.9375 11.6875 C-35.28072266 11.47416016 -34.62394531 11.26082031 -33.94726562 11.04101562 C-30.65060562 9.95295543 -27.45195893 8.79182666 -24.28125 7.375 C-20.35015163 5.72768259 -17.21108433 5.36939336 -13 5 C-13 4.34 -13 3.68 -13 3 C-8.06632653 0.99308198 -5.44479395 0 0 0 Z " fill="#0000FB" transform="translate(296,279)"/>
<path d="M0 0 C1.15328584 -0.00445784 2.30657168 -0.00891569 3.49480557 -0.01350862 C5.4117838 -0.01323207 5.4117838 -0.01323207 7.36748886 -0.01294994 C8.73024881 -0.01624773 10.09300777 -0.01997312 11.45576549 -0.02409142 C15.21358551 -0.03412925 18.97138957 -0.03783107 22.72922111 -0.04048073 C26.77706188 -0.04437852 30.82488995 -0.05395721 34.87272263 -0.0626936 C44.65472103 -0.08247296 54.4367205 -0.0925261 64.21873391 -0.10142139 C68.82238401 -0.10580189 73.42603297 -0.11116932 78.02968216 -0.11641026 C93.32839469 -0.13342404 108.62710649 -0.14791894 123.92582703 -0.155159 C127.89757157 -0.15706897 131.86931611 -0.15898929 135.84106064 -0.16094494 C136.82824926 -0.16142868 137.81543789 -0.16191242 138.83254132 -0.16241082 C154.82981627 -0.17071382 170.82701652 -0.19605462 186.82425883 -0.22852562 C203.23891277 -0.26157292 219.6535287 -0.27960565 236.06821609 -0.28280324 C245.28826258 -0.2849705 254.50820014 -0.29375071 263.72821426 -0.31926441 C271.57935699 -0.34093963 279.43036432 -0.34903755 287.28153357 -0.33929763 C291.28837387 -0.33474365 295.29493462 -0.33670249 299.30173683 -0.35605907 C302.96966924 -0.37362579 306.63711683 -0.37274644 310.30505392 -0.35716178 C312.26100764 -0.35364513 314.21696607 -0.36986041 316.17284989 -0.38676625 C326.86574955 -0.30792008 326.86574955 -0.30792008 331.60131454 4.13422108 C333.13346342 7.19851884 332.83070002 9.75078528 332.60131454 13.13422108 C331.28881454 16.00922108 331.28881454 16.00922108 329.60131454 18.13422108 C326.48206036 19.17397247 324.31780715 19.26366748 321.04555321 19.27123547 C319.30126264 19.27884728 319.30126264 19.27884728 317.52173388 19.28661287 C315.59642889 19.2873595 315.59642889 19.2873595 313.63222885 19.28812122 C312.25964336 19.29213576 310.88705905 19.29657396 309.51447618 19.30140078 C305.73418406 19.31337268 301.9539047 19.31901613 298.17359734 19.32358193 C294.09988822 19.32953549 290.02619439 19.34114575 285.95249557 19.35187244 C276.11159787 19.376399 266.27069511 19.39102237 256.42977625 19.40393251 C253.65148054 19.40764374 250.87318533 19.41161702 248.09489012 19.41568518 C230.85011702 19.44091696 213.60534314 19.46297474 196.36055565 19.47541332 C192.36593879 19.47834311 188.37132196 19.48130477 184.37670517 19.48431873 C183.38383851 19.48506478 182.39097185 19.48581083 181.36801831 19.48657949 C165.27311531 19.49924149 149.17832256 19.53247612 133.08347113 19.57412057 C116.56822003 19.61650346 100.05302545 19.64010398 83.53772008 19.64533389 C74.26124188 19.64875175 64.98493612 19.6605513 55.70851135 19.69343662 C47.81086731 19.72138802 39.91343104 19.73245806 32.01574136 19.72124116 C27.9846546 19.71604219 23.95400331 19.7190209 19.92297935 19.7437067 C16.23408171 19.76610936 12.54593459 19.76553054 8.8570246 19.74650283 C6.88744116 19.7423556 4.91785383 19.7629146 2.94838202 19.78428972 C-6.57933508 19.69805691 -6.57933508 19.69805691 -9.68581963 16.74099636 C-11.9665583 13.26998707 -12.05373284 11.25720533 -11.83227921 7.22406483 C-11.20638265 4.2073562 -9.87677642 2.88346175 -7.39868546 1.13422108 C-4.79908901 -0.16557715 -2.91263702 0.00520172 0 0 Z " fill="#000101" transform="translate(361.39868545532227,347.86577892303467)"/>
<path d="M0 0 C0.92453476 -0.0159874 1.84906952 -0.03197479 2.80162048 -0.04844666 C3.7933577 -0.05380936 4.78509491 -0.05917206 5.80688477 -0.06469727 C6.83258072 -0.07372574 7.85827667 -0.08275421 8.91505432 -0.09205627 C11.08282555 -0.1065539 13.25064048 -0.1154443 15.41845703 -0.11914062 C18.73292679 -0.13104832 22.04554157 -0.1802497 25.35961914 -0.23071289 C27.46703194 -0.24017602 29.57445616 -0.24741158 31.68188477 -0.25219727 C32.67159775 -0.27172958 33.66131073 -0.2912619 34.68101501 -0.31138611 C41.59254919 -0.26610529 41.59254919 -0.26610529 45.41259766 2.77880859 C46.03900146 3.6129126 46.66540527 4.4470166 47.31079102 5.30639648 C47.80579102 5.80139648 47.80579102 5.80139648 48.31079102 6.30639648 C48.42465298 7.77803143 48.47033812 9.25502705 48.48779297 10.73095703 C48.50704582 12.14328865 48.50704582 12.14328865 48.52668762 13.58415222 C48.53407455 14.61011002 48.54146149 15.63606781 48.54907227 16.69311523 C48.55714401 17.7428804 48.56521576 18.79264557 48.5735321 19.8742218 C48.58739447 22.10281716 48.59810694 24.33143395 48.60595703 26.56005859 C48.62313124 29.96224604 48.66699434 33.36345234 48.71118164 36.76538086 C48.72131147 38.92878516 48.72982666 41.09219774 48.73657227 43.25561523 C48.75408035 44.27145187 48.77158844 45.28728851 48.78962708 46.33390808 C48.77153821 52.25301527 48.43981203 55.90171447 44.31079102 60.30639648 C41.46560719 61.28245039 38.79800981 61.44540524 35.80517578 61.48339844 C34.92068253 61.49623367 34.03618927 61.50906891 33.12489319 61.52229309 C32.17690353 61.52968002 31.22891388 61.53706696 30.25219727 61.54467773 C29.2708934 61.55274948 28.28958954 61.56082123 27.27854919 61.56913757 C25.20492305 61.58295289 23.1312744 61.59368643 21.05761719 61.6015625 C17.88831728 61.61881469 14.72005028 61.66272843 11.55102539 61.70678711 C9.534757 61.71691126 7.51847977 61.72542823 5.50219727 61.73217773 C4.55623184 61.74968582 3.61026642 61.76719391 2.63563538 61.78523254 C-1.62563122 61.77118795 -4.04266047 61.693155 -7.76367188 59.46728516 C-10.59445712 56.29050309 -10.81575849 53.71754267 -10.83447266 49.62304688 C-10.84085251 48.67518814 -10.84723236 47.72732941 -10.85380554 46.75074768 C-10.85547478 45.21788368 -10.85547478 45.21788368 -10.85717773 43.65405273 C-10.86050613 42.60237411 -10.86383453 41.5506955 -10.86726379 40.46714783 C-10.87232824 38.2421004 -10.87467227 36.01704537 -10.87451172 33.79199219 C-10.8766981 30.38585926 -10.89485878 26.98005022 -10.91381836 23.57397461 C-10.91675237 21.41316843 -10.91873712 19.2523607 -10.91967773 17.09155273 C-10.92686325 16.07166763 -10.93404877 15.05178253 -10.94145203 14.00099182 C-10.9383754 13.04998093 -10.93529877 12.09897003 -10.93212891 11.11914062 C-10.93355392 10.28435684 -10.93497894 9.44957306 -10.93644714 8.5894928 C-10.65573772 5.99730942 -10.1511847 4.46618219 -8.68920898 2.30639648 C-5.804121 0.36793707 -3.43204307 0.04502696 0 0 Z " fill="#010202" transform="translate(365.689208984375,251.693603515625)"/>
<path d="M0 0 C2 2 2 2 2 5 C2.66 5 3.32 5 4 5 C4.25394531 5.78503906 4.50789062 6.57007812 4.76953125 7.37890625 C7.01680847 14.31247823 7.01680847 14.31247823 9.75 21.0625 C11 24 11 24 11 27 C9.88625 27.4125 8.7725 27.825 7.625 28.25 C3.53773609 29.78091864 -0.5106474 31.39971132 -4.55859375 33.03125 C-6.71624855 33.88740742 -8.88264788 34.70259883 -11.0625 35.5 C-13.91411403 36.5536084 -16.67235606 37.73702768 -19.4375 39 C-25.18598968 41.58582581 -30.64214575 44 -37 44 C-37 44.66 -37 45.32 -37 46 C-48.06073711 49.95790644 -57.99436974 50.5389345 -69.6484375 50.390625 C-71.39962104 50.38314439 -73.15081308 50.37746009 -74.90200806 50.37347412 C-79.4624838 50.35836071 -84.02243215 50.3192064 -88.58270264 50.2746582 C-93.2555834 50.23339296 -97.9285512 50.21539706 -102.6015625 50.1953125 C-111.73460395 50.15269483 -120.86725775 50.08462195 -130 50 C-127 48 -127 48 -124 48 C-124 47.34 -124 46.68 -124 46 C-121.89748139 45.32815382 -119.79292237 44.66269032 -117.6875 44 C-116.51574219 43.62875 -115.34398437 43.2575 -114.13671875 42.875 C-111 42 -111 42 -108 42 C-108 41.34 -108 40.68 -108 40 C-105.70922959 39.33011414 -103.41748541 38.66396838 -101.125 38 C-100.47402344 37.80921875 -99.82304687 37.6184375 -99.15234375 37.421875 C-94.2265625 36 -94.2265625 36 -92 36 C-92 35.34 -92 34.68 -92 34 C-91.26394531 33.81824219 -90.52789062 33.63648438 -89.76953125 33.44921875 C-84.6433404 32.12873366 -80.5161699 30.77918148 -76 28 C-73.50626983 27.17591017 -70.99156579 26.46218384 -68.46484375 25.74609375 C-65.88548674 24.96533751 -63.48712896 23.92545215 -61.03515625 22.8125 C-58.28162059 21.71319977 -55.46700997 20.90555278 -52.625 20.0625 C-47.91676905 18.6494914 -43.50634165 17.02246261 -39.05859375 14.94140625 C-35.77313764 13.43894909 -32.39124579 12.24345679 -29 11 C-28.071875 10.608125 -27.14375 10.21625 -26.1875 9.8125 C-24 9 -24 9 -21 9 C-21 8.34 -21 7.68 -21 7 C-20.39937744 6.823479 -19.79875488 6.64695801 -19.17993164 6.46508789 C-16.47312842 5.66755 -13.76780837 4.86509318 -11.0625 4.0625 C-10.11697266 3.78470703 -9.17144531 3.50691406 -8.19726562 3.22070312 C-7.29814453 2.95322266 -6.39902344 2.68574219 -5.47265625 2.41015625 C-4.64000244 2.16402588 -3.80734863 1.91789551 -2.94946289 1.66430664 C-1.01961475 1.16669327 -1.01961475 1.16669327 0 0 Z " fill="#F6F6F6" transform="translate(594,117)"/>
<path d="M0 0 C0 9.9 0 19.8 0 30 C-3.63 31.32 -7.26 32.64 -11 34 C-15.8842874 35.90606338 -20.68935014 37.84444776 -25.4375 40.0625 C-31.21184477 42.66661627 -37.62076138 45 -44 45 C-44 45.66 -44 46.32 -44 47 C-51.51509307 50.4027878 -59.00340967 53.02838052 -66.94702148 55.21166992 C-71.49172369 56.477805 -75.69931286 58.05485261 -80 60 C-82.12508244 56.81237635 -82.5020163 54.73487777 -83 51 C-83.66 51 -84.32 51 -85 51 C-86.0063655 48.56495491 -87.00526413 46.12729136 -88 43.6875 C-88.42925781 42.65206055 -88.42925781 42.65206055 -88.8671875 41.59570312 C-90.08910744 38.58454326 -91 36.28113016 -91 33 C-83.60931178 29.89466881 -76.30868581 26.97310016 -68.5625 24.875 C-63.28658564 23.44313586 -58.77364195 21.61362297 -54 19 C-49.270064 16.759504 -45.21403199 15.53204408 -40 15 C-40 14.34 -40 13.68 -40 13 C-38.58603098 12.49242138 -37.16868271 11.99425075 -35.75 11.5 C-34.96109375 11.2215625 -34.1721875 10.943125 -33.359375 10.65625 C-31 10 -31 10 -27 10 C-27 9.34 -27 8.68 -27 8 C-25.74703125 7.59007812 -24.4940625 7.18015625 -23.203125 6.7578125 C-21.55203054 6.21370183 -19.90099178 5.66942214 -18.25 5.125 C-17.0125 4.72087891 -17.0125 4.72087891 -15.75 4.30859375 C-14.95078125 4.04433594 -14.1515625 3.78007812 -13.328125 3.5078125 C-12.5949707 3.26691895 -11.86181641 3.02602539 -11.10644531 2.77783203 C-8.97599895 2.05307458 -8.97599895 2.05307458 -7.04199219 0.90576172 C-5 0 -5 0 0 0 Z " fill="#F7F7F7" transform="translate(296,231)"/>
<path d="M0 0 C0.9778093 -0.0087616 1.95561859 -0.01752319 2.96305847 -0.02655029 C6.19132011 -0.04853503 9.4182091 -0.03399412 12.64648438 -0.01708984 C14.89180769 -0.02045822 17.13712922 -0.02531102 19.38244629 -0.03158569 C24.08668387 -0.03895581 28.79044655 -0.0282465 33.49462891 -0.00488281 C39.52425181 0.0236044 45.55276197 0.00720126 51.58234406 -0.02274513 C56.21836734 -0.04081397 60.85412685 -0.03506183 65.49015808 -0.02210617 C67.71331412 -0.01877105 69.93649413 -0.02286293 72.15962219 -0.03450394 C75.26721615 -0.04720522 78.37300895 -0.02784419 81.48046875 0 C82.39906174 -0.01012115 83.31765472 -0.02024231 84.26408386 -0.03067017 C88.76451077 0.04402527 90.64828258 0.18670121 94.30651855 3.03115845 C96.39413931 5.85516597 96.9440047 7.17597077 96.92773438 10.64697266 C96.95222656 11.47197266 96.97671875 12.29697266 97.00195312 13.14697266 C95.87272338 16.85316259 93.52857949 18.80594851 90.24023438 20.64697266 C86.97471657 21.36406831 83.79236147 21.34128679 80.45874023 21.30981445 C79.00643761 21.32536629 79.00643761 21.32536629 77.52479553 21.3412323 C74.33445475 21.36826775 71.1454917 21.35864904 67.95507812 21.34619141 C65.73360308 21.35210076 63.51213122 21.35934766 61.29066467 21.36787415 C56.63948955 21.37974817 51.98879318 21.37305538 47.33764648 21.35375977 C41.37629674 21.3308546 35.41637051 21.35767449 29.45516109 21.39882183 C24.86973884 21.42438877 20.28465781 21.4218232 15.69919014 21.41092873 C13.50114206 21.40944148 11.3030679 21.41713837 9.10508537 21.43417931 C6.03328738 21.45413216 2.96401526 21.43578194 -0.10766602 21.4074707 C-1.01533722 21.42118713 -1.92300842 21.43490356 -2.85818481 21.44903564 C-8.86719255 21.33829228 -8.86719255 21.33829228 -11.44183159 19.34417152 C-13.9658977 16.42428212 -15.45423802 13.9679795 -15.38476562 10.08447266 C-15.39765625 9.36130859 -15.41054688 8.63814453 -15.42382812 7.89306641 C-13.09789926 0.02595406 -6.9206859 -0.07625285 0 0 Z " fill="#030404" transform="translate(364.759765625,387.35302734375)"/>
<path d="M0 0 C5.76892946 4.78911128 9.59579078 8.80280423 10.3359375 16.48828125 C10.41087039 23.82421149 10.42504409 29.83874069 6 36 C5.4225 36.886875 4.845 37.77375 4.25 38.6875 C-0.10766121 43.16620736 -5.57365397 46.80329389 -11.92578125 47.16796875 C-13.04339844 47.17441406 -14.16101563 47.18085938 -15.3125 47.1875 C-16.42238281 47.20167969 -17.53226563 47.21585937 -18.67578125 47.23046875 C-27.15511679 46.64259472 -31.78837999 42.47202163 -37.3125 36.5 C-42.14782867 29.33655013 -41.93832019 20.67257207 -40.5703125 12.40234375 C-38.75646516 5.87473266 -34.95284528 1.49046979 -29.2578125 -2.09765625 C-20.33323667 -6.21521806 -8.09351286 -5.57691193 0 0 Z " fill="#F9CC67" transform="translate(666,254)"/>
<path d="M0 0 C3.25 1.6875 3.25 1.6875 4.25 4.6875 C3.69140625 6.53515625 3.69140625 6.53515625 2.8125 8.75 C-0.96715902 20.66376391 0.75835962 33.9239973 4.25 45.6875 C-3.07061165 50.02564024 -10.35144746 50.78039488 -18.75 49.6875 C-22.89492719 47.99977594 -25.90460489 45.96426328 -29.0625 42.8125 C-29.73925781 42.15507812 -30.41601562 41.49765625 -31.11328125 40.8203125 C-32.95988918 38.41399286 -33.39158804 36.66907192 -33.75 33.6875 C-34.41 33.6875 -35.07 33.6875 -35.75 33.6875 C-36.84995958 30.38762125 -36.91747591 27.84717713 -36.9375 24.375 C-36.95167969 23.26511719 -36.96585938 22.15523438 -36.98046875 21.01171875 C-36.55927601 14.93654885 -34.42120355 10.50595466 -30.75 5.6875 C-30.09 5.6875 -29.43 5.6875 -28.75 5.6875 C-28.75 5.0275 -28.75 4.3675 -28.75 3.6875 C-27.480447 3.03915346 -26.20930294 2.39392185 -24.9375 1.75 C-24.22980469 1.39035156 -23.52210938 1.03070313 -22.79296875 0.66015625 C-15.96288728 -2.59164162 -7.10816502 -2.46399187 0 0 Z " fill="#F66C54" transform="translate(604.75,251.3125)"/>
<path d="M0 0 C6.6 0 13.2 0 20 0 C20 7.92 20 15.84 20 24 C13.4 24 6.8 24 0 24 C0 16.08 0 8.16 0 0 Z " fill="#5C74EF" transform="translate(374,271)"/>
<path d="M0 0 C3.42496258 1.18002912 3.87945297 1.85130896 6 5 C6.7754893 8.1959559 6.9297486 10.83677711 6 14 C3.36905088 18.21153852 3.36905088 18.21153852 1 20 C-2.01974325 20.4830374 -4.15546672 20.629519 -7.125 20.4375 C-7.84042969 20.41880859 -8.55585938 20.40011719 -9.29296875 20.38085938 C-12.41453107 20.2729175 -15.02514731 19.99161756 -18 19 C-20.82297758 14.60870154 -21.65976948 11.18390306 -21 6 C-15.88622066 -1.84112832 -8.52617895 -0.77180534 0 0 Z " fill="#06090A" transform="translate(496,388)"/>
<path d="M0 0 C1.4606285 2.64738916 2 3.89448334 2 7 C-4.93 7 -11.86 7 -19 7 C-16.55990473 4.55990473 -14.88838914 4.31270067 -11.5625 3.5 C-7.45898408 2.49461128 -4.07238066 0 0 0 Z " fill="#0000DE" transform="translate(607,160)"/>
<path d="M0 0 C-1.9154221 4.59076711 -5.32994932 7.34532607 -8.90625 10.68359375 C-11.05237895 13.0579491 -12.01969858 14.97917987 -13 18 C-13.66 18 -14.32 18 -15 18 C-13.63747914 12.59857802 -11.2437218 9.54284839 -7.5 5.625 C-7.00113281 5.07972656 -6.50226563 4.53445312 -5.98828125 3.97265625 C-2.27449483 0 -2.27449483 0 0 0 Z " fill="#3A3A3A" transform="translate(187,179)"/>
<path d="M0 0 C0.66 0.33 1.32 0.66 2 1 C-1.3 4.3 -4.6 7.6 -8 11 C-8 6.67750434 -5.85084926 5.11604454 -3 2 C-2.01 1.34 -1.02 0.68 0 0 Z " fill="#0000BE" transform="translate(199,193)"/>
<path d="M0 0 C0.66 0.33 1.32 0.66 2 1 C-0.64 3.64 -3.28 6.28 -6 9 C-6.66 8.67 -7.32 8.34 -8 8 C-7.04578192 6.85073734 -6.08647955 5.70569459 -5.125 4.5625 C-4.59132813 3.92441406 -4.05765625 3.28632813 -3.5078125 2.62890625 C-2 1 -2 1 0 0 Z " fill="#222E32" transform="translate(565,240)"/>
</svg>
